<svg xmlns="http://www.w3.org/2000/svg" width="41" height="71" viewBox="0 0 41 71" fill="none">
    <path d="M24.8789 9.94C23.529 5.23091 21.7791 3.1017 17.3055 0C19.0448 3.50144 18.3223 6.2631 17.424 11.005C15.7949 16.4379 14.3242 19.3652 11.2707 24.495C8.15568 28.4224 6.53347 30.6808 3.81552 34.79C-0.175842 41.5362 -0.0629647 45.2761 0.0288509 51.9483C0.828761 57.4951 2.51762 60.3747 6.53718 65.32C10.5554 68.997 13.1755 70.2416 18.3705 71C14.2693 69.1117 12.5992 67.5096 10.0872 64.255C6.80451 60.1945 6.31044 56.7271 7.60221 49.8183C9.87429 43.6443 14.7022 38.695 19.7905 31.4767C24.8789 24.2583 23.6057 25.1952 24.8789 20.4717C25.7496 17.2666 25.5423 14.7446 24.8789 9.94Z" fill="#F6E7C0"></path>
    <path d="M40.7357 44.4933C39.1073 37.1982 36.8858 33.5313 31.8607 27.335C31.8607 39.1683 27.173 44.5301 22.749 50.2917C26.2503 49.2939 28.0881 47.8206 31.269 44.4933C30.914 50.1733 28.2957 53.4885 24.879 56.9183C20.8552 60.7812 20.4611 63.1962 20.1478 67.5386C20.5246 62.4684 26.6434 59.5037 31.7423 54.7883C30.914 62.9533 26.7003 66.6545 23.104 71C29.4938 69.7514 32.8932 68.3244 37.7773 61.06C40.7363 56.8745 40.6947 52.4393 40.7357 44.4933Z" fill="#F6E7C0"></path>
</svg>